<svg xmlns="http://www.w3.org/2000/svg" viewBox="0 0 400 400" fill="none">
  <rect width="400" height="400" fill="#F3F4F6"/>
  <g transform="translate(120, 150)">
    <!-- Shoe sole -->
    <path d="M10 70 Q10 90 30 90 L140 90 Q160 90 160 70 L155 60 Q150 50 130 50 L30 50 Q15 50 10 70Z" fill="#D1D5DB"/>
    <!-- Shoe body -->
    <path d="M20 50 Q20 20 50 10 L120 10 Q140 10 150 30 L155 50 L30 50 Q20 50 20 50Z" fill="#E5E7EB"/>
    <!-- Shoe laces area -->
    <path d="M60 10 L65 50 M80 10 L82 50 M100 10 L99 50" stroke="#D1D5DB" stroke-width="2"/>
    <!-- Swoosh -->
    <path d="M35 40 Q80 55 145 25" stroke="#9CA3AF" stroke-width="3" fill="none" stroke-linecap="round"/>
  </g>
  <text x="200" y="280" text-anchor="middle" fill="#9CA3AF" font-family="system-ui, sans-serif" font-size="14" font-weight="600">No Image</text>
</svg>
